Genre:Crime | Drama | History
Language:English
IMDb:http://www.imdb.com/title/tt1153106/
Source:1080p.BluRay.x264-SAiMORNY Thanks!
Subtitles:Romana


Format : MPEG-4
Format profile : Base Media
Codec ID : isom
File size : 2.62 GiB
Duration : 1h 51mn
Overall bit rate : 3 379 Kbps


Video
Format profile : High@L4.1
Format settings, CABAC : Yes
Format settings, ReFrames : 3 frames
Codec ID : avc1
Codec ID/Info : Advanced Video Coding
Duration : 1h 51mn
Bit rate mode : Variable
Bit rate : 3 000 Kbps
Maximum bit rate : 27.6 Mbps
Width : 1 280 pixels
Height : 696 pixels
Display aspect ratio : 16:9
Frame rate mode : Constant
Frame rate : 23.976 fps
Color space : YUV
Chroma subsampling : 4:2:0
Bit depth : 8 bits
Scan type : Progressive
Bits/(Pixel*Frame) : 0.140
Stream size : 2.27 GiB (87%)
Writing library : x264


Audio
ID : 2
Format : AAC
Format/Info : Advanced Audio Codec
Format version : Version 4
Format profile : LC
Format settings, SBR : No
Codec ID : 40
Duration : 1h 51mn
Bit rate mode : Variable
Bit rate : 445 Kbps
Maximum bit rate : 522 Kbps
Channel(s) : 6 channels
Channel positions : Front: L C R, Side: L R, LFE
Sampling rate : 48.0 KHz
Stream size : 354 MiB (13%)


Plot:
In 1945 a group of victorious American officers discover a stash of German jewels and try to fence them in New York.